<?xml version="1.0" encoding="UTF-8"?><svg id="Layer_1" xmlns="http://www.w3.org/2000/svg" width="153" height="52" viewBox="0 0 153 52"><defs><style>.cls-1{fill:#007afe;}</style></defs><path class="cls-1" d="M61.27,23.84l-3.46-1.01-5.51,2.39,1.5,4.13,7.46-5.51Z"/><path class="cls-1" d="M56.72,22.59l-6.92-1.44,2.22,3.48,4.7-2.04Z"/><path class="cls-1" d="M66.89,22.22l1.06-2.39-8.11-.46-1.55,2.92,3.72,1.09,4.87-1.17Z"/><path class="cls-1" d="M59.22,18.77l-.34-2.26-5.04.99,1.62,1.83,3.76-.56Z"/><path class="cls-1" d="M55.96,19.9l1.75,1.99,1.29-2.44-3.04.45Z"/><path class="cls-1" d="M48.82,20.9l-8.28-5.72,2.74,10.01,7.99-.43-2.46-3.86Z"/><path class="cls-1" d="M49.25,20.39l7.59,1.57L39.59,2.37l.72,11.83,8.94,6.19Z"/><path class="cls-1" d="M72.69,22.51l1.6-.12.02-.84-1.38.39-.24.57Z"/><path class="cls-1" d="M72.92,21.27l1.08-.31-3.27-2.76-1.62,1.29,3.81,1.78Z"/><path class="cls-1" d="M39.27,35.02l1.38.95,3.5-5.33-1.36-4.64-3.51,9.02Z"/><path class="cls-1" d="M72.26,21.7l-1.85-.86,1.6,1.45.25-.59Z"/><path class="cls-1" d="M50.83,25.43l-7.36.39,1.26,4.29,6.11-4.67Z"/><path class="cls-1" d="M68.35,19.21l1.54-1.23-10.28-1.46.34,2.23,8.41.47Z"/><path class="cls-1" d="M68.59,20.11l-.98,2.21,3.25,1.32.79-.76-3.06-2.77Z"/><path class="cls-1" d="M71.48,23.98l2.04,1.39-1.42-1.98-.62.59Z"/><path class="cls-1" d="M45.16,30.61l7.63,3.61.49-4.3-1.57-4.32-6.55,5.01Z"/><path class="cls-1" d="M53.99,30.06l-.44,3.87,8.51-7.02-.32-2.57-7.74,5.72Z"/><path class="cls-1" d="M74.67,26.19l.17,1.05.63-1.23-.8.18Z"/><path class="cls-1" d="M74.4,23.02l-1.63.13,1.72,2.4.89-.2-.98-2.33Z"/><path class="cls-1" d="M62.4,23.95l.33,2.61,7.3-2.56-2.91-1.18-4.72,1.13Z"/><path class="cls-1" d="M39.72,14.87l-16.02,8.92,18.84,1.38-2.82-10.29Z"/><path class="cls-1" d="M41.32,36.21l1.9.27,8.85-1.88-7.41-3.51-3.34,5.11Z"/><path class="cls-1" d="M38.93,35.6l-5.57,8.23,3.13,3.52,3.84-10.78-1.4-.97Z"/><path class="cls-1" d="M43.72,48.05l2.81-2.45-3.15-8.53.34,10.98Z"/><path class="cls-1" d="M41.01,36.8l-3.98,11.15,2.97,3.36,3.02-2.64-.35-11.61-1.66-.25Z"/><path class="cls-1" d="M39.56,13.9l-13.01-3.99v-1.44h2.82v-2.21h-2.43v-2.43h2.23v-1.46h9.71l.69,11.53ZM32.57,4.16h-1.45v1.29h1.45v-1.29ZM36.31,6.38h-1.66v1h-1.86v2.08h2.34v-1.61h1.18v-1.47Z"/><path class="cls-1" d="M18.24,8.36h-1.88v2.38h2.68v-1.54h1.7v-2.85h-2.04v-1.19h-1.74v1.55h1.28v1.66Z"/><path class="cls-1" d="M16.42,13.22h-2.84v2.53h2.84v-2.53Z"/><path class="cls-1" d="M8.27,8.47h-2.35v2.08h2.35v-2.08Z"/><path class="cls-1" d="M19.78,16.92h-2.54v2.26h2.54v-2.26Z"/><path class="cls-1" d="M5.28,2.98h-2.35v2.09h2.35v-2.09Z"/><path class="cls-1" d="M6.37.3h-1.51v1.34h1.51V.3Z"/><path class="cls-1" d="M1.56,1.68H.5v.94h1.06v-.94Z"/><path class="cls-1" d="M21.05,3.56v1.89h2.12v-1.15h2.73V1.44h-3.22v2.12h-1.64Z"/><path class="cls-1" d="M20.26,1.42h.97V0h-1.59v.95h-1.56v1.93h2.17v-1.46Z"/><path class="cls-1" d="M11.31,11.97h3.25v-2.89h-2.61v-1.31h-2.13v1.89h1.49v2.3Z"/><path class="cls-1" d="M25.55,7.08h-3.15v2.8h3.15v-2.8Z"/><path class="cls-1" d="M13.32.31h-1.58v1.41h1.58V.31Z"/><path class="cls-1" d="M9.82,1.02h-2.04v1.81h2.04v-1.81Z"/><path class="cls-1" d="M13.86,7.77h1.74v-1.91h-1.18v-1.12h2.01v-2.42h-2.97v1.82h-1.73v2.25h2.12v1.39Z"/><path class="cls-1" d="M9.82,4.21h-2.72v2.42h2.72v-2.42Z"/><path class="cls-1" d="M12.02,13.58h-1.61v1.42h1.61v-1.42Z"/><path class="cls-1" d="M22.66,23.63l-2.25-2.24h-1.31v-1.31l-.05-.05h4.42v-2.1h.8v-1.41h-1.59v1.04h-1.26v-1.7h-1.76v-1.51h-1.95v-2.38h2.25v-1.41h2.12v1.89h-1.7v1.17h1.99v1.25h3.41v-1.51h-1.35v-1.93h2.13v-.85l12.57,3.86-16.46,9.18ZM31.02,15.23h2.1v-1.86h-2.1v1.86ZM25.32,19.39h1.73v-.99h2.03v-2.25h-2.53v1.7h-1.24v1.53Z"/><path class="cls-1" d="M74.49,43.28h-8.37l-1.72,2.47h-3.1l7.01-9.92c.2-.29.46-.55.76-.76.38-.22.82-.32,1.27-.3.44-.02.89.08,1.26.3.3.21.56.46.76.76l6.98,9.92h-3.12l-1.74-2.47ZM67.38,41.44h5.84l-2.92-4.24-2.92,4.24Z"/><path class="cls-1" d="M86.93,45.76c-.74.01-1.49-.05-2.21-.19-.51-.09-1-.31-1.41-.63-.36-.29-.62-.69-.75-1.13-.16-.56-.23-1.14-.22-1.73v-7.05h2.68v6.95c0,.27.03.53.1.8.06.2.18.39.35.53.19.15.42.26.67.31.35.07.7.1,1.05.09h7.18v2.05h-7.42Z"/><path class="cls-1" d="M100.96,42.7v3.07h-2.7v-10.73h9.68c.73-.01,1.45.05,2.16.18.52.09,1,.3,1.4.6.36.29.62.66.75,1.08.16.52.23,1.06.22,1.6v.93c.01.54-.06,1.07-.21,1.59-.12.39-.38.74-.73,1.01-.42.28-.89.47-1.39.53-.73.11-1.46.16-2.19.15h-6.99ZM109.79,38.59c0-.58-.14-.97-.42-1.18-.28-.2-.78-.31-1.5-.31h-6.91v3.67h6.94c.71,0,1.2-.1,1.47-.29.27-.19.4-.58.4-1.14v-.74h.01Z"/><path class="cls-1" d="M128.1,45.76v-4.28h-8.85v4.28h-2.7v-10.73h2.7v4.37h8.86v-4.37h2.69v10.73h-2.69Z"/><path class="cls-1" d="M147.64,43.29h-8.37l-1.72,2.47h-3.1l7.01-9.92c.2-.29.46-.54.76-.75.29-.2.72-.3,1.27-.3.45-.03.89.08,1.26.3.3.21.56.46.76.75l6.98,9.92h-3.11l-1.75-2.47ZM140.53,41.45h5.85l-2.92-4.24-2.93,4.24Z"/></svg>